# xmcd
#
# Track frame offsets:
#	177
#	890
#	15507
#	16002
#	28475
#	29067
#	46955
#	47630
#	57550
#	58170
#	73475
#	74067
#	85887
#	86480
#	101575
#	102062
#	117987
#	118407
#	137505
#	138067
#	149820
#	150347
#	160777
#	161412
#	175315
#	175900
#	190577
#	195652
#	198450
#
# Disc length: 2658 seconds
#
# Revision: 0
# Processed by: cddbd v1.5.2PL0 Copyright (c) Steve Scherf et al.
# Submitted via: EasyCDDAExtractor 10.0.6.1
#
DISCID=980a601d
DTITLE=Various Artist - The Eddie Crook Co.
DYEAR=1992
DGENRE=Gospel
TTITLE0=1 - 1
TTITLE1=McKameys - Vision Of Heaven
TTITLE2=2 - 2
TTITLE3=Isaacs - I Have A Father Who Can
TTITLE4=3 - 3
TTITLE5=Cedar Ridge - I've Just Seen Jesus
TTITLE6=4 - 4
TTITLE7=Fox Brothers - Jesus Lived In Arkansas
TTITLE8=5 - 5
TTITLE9=Eddie Crooke - Just A Closer Walk With Thee
TTITLE10=6 - 6
TTITLE11=Hastys - Valley Dear, Mountain Sweet
TTITLE12=7 - 7
TTITLE13=Watkins Family - You're No Stranger
TTITLE14=8 - 8
TTITLE15=Singing McGees - Get Out Of The Boat
TTITLE16=9 - 9
TTITLE17=Thomas' - God Still Answers Prayer
TTITLE18=announcer - Intro
TTITLE19=Haires - The Going Home Trumpet
TTITLE20=11 - 11
TTITLE21=Perrys - We Shall Reign
TTITLE22=12 - 12
TTITLE23=Carroll Roberson - Love Found A Pardon
TTITLE24=13 - 13
TTITLE25=Chandlers - Headed Up The Mountain
TTITLE26=Jingle1 - 14
TTITLE27=Jingle2 - Share The Joy
TTITLE28=Jingle3 - 16
EXTD=
EXTT0=
EXTT1=
EXTT2=
EXTT3=
EXTT4=
EXTT5=
EXTT6=
EXTT7=
EXTT8=
EXTT9=
EXTT10=
EXTT11=
EXTT12=
EXTT13=
EXTT14=
EXTT15=
EXTT16=
EXTT17=
EXTT18=
EXTT19=
EXTT20=
EXTT21=
EXTT22=
EXTT23=
EXTT24=
EXTT25=
EXTT26=
EXTT27=
EXTT28=
PLAYORDER=
